<svg width="22" height="22" viewBox="0 0 22 22" fill="none" xmlns="http://www.w3.org/2000/svg">
<path d="M20.25 10.5C20.25 10.9142 20.5858 11.25 21 11.25C21.4142 11.25 21.75 10.9142 21.75 10.5H20.25ZM20.8059 2.51966L20.1287 2.84195L20.1287 2.84196L20.8059 2.51966ZM20.241 1.81079L20.7064 1.22266L20.7064 1.22265L20.241 1.81079ZM19 1.3274L19.1674 0.596331V0.596331L19 1.3274ZM3 2.6726L3.16745 1.94153L3.16744 1.94153L3 2.6726ZM1.19412 16.4803L1.87132 16.158L1.87131 16.1579L1.19412 16.4803ZM1.75898 17.1892L2.22439 16.6011L2.22427 16.601L1.75898 17.1892ZM3 17.6726L3.16748 16.9415L3.16743 16.9415L3 17.6726ZM10.2354 18.1068C10.6287 17.9768 10.8421 17.5525 10.7121 17.1593C10.5821 16.766 10.1578 16.5526 9.76455 16.6826L10.2354 18.1068ZM5.25 10.5C5.25 10.0858 4.91421 9.75 4.5 9.75C4.08579 9.75 3.75 10.0858 3.75 10.5H5.25ZM3.75 10.509C3.75 10.9232 4.08579 11.259 4.5 11.259C4.91421 11.259 5.25 10.9232 5.25 10.509H3.75ZM18.25 8.49219C18.25 8.07798 17.9142 7.74219 17.5 7.74219C17.0858 7.74219 16.75 8.07798 16.75 8.49219H18.25ZM16.75 8.50117C16.75 8.91538 17.0858 9.25117 17.5 9.25117C17.9142 9.25117 18.25 8.91538 18.25 8.50117H16.75ZM18.8413 12.4482C18.5366 12.1677 18.0621 12.1873 17.7815 12.492C17.501 12.7967 17.5206 13.2712 17.8253 13.5518L18.8413 12.4482ZM19.1565 13.7579L19.6822 13.223C19.6764 13.2173 19.6705 13.2116 19.6645 13.2061L19.1565 13.7579ZM19.3938 14.0969L20.0847 14.3888L20.085 14.388L19.3938 14.0969ZM12.4849 18.2691C12.6335 18.6557 13.0674 18.8487 13.4541 18.7001C13.8407 18.5515 14.0337 18.1176 13.8851 17.7309L12.4849 18.2691ZM15.1587 21.5518C15.4634 21.8323 15.9379 21.8127 16.2185 21.508C16.499 21.2033 16.4794 20.7288 16.1747 20.4482L15.1587 21.5518ZM14.8435 20.2421L14.3178 20.777C14.3236 20.7827 14.3295 20.7883 14.3355 20.7939L14.8435 20.2421ZM14.6062 19.9031L13.9153 19.6112L13.915 19.612L14.6062 19.9031ZM21.5151 15.7309C21.3665 15.3443 20.9326 15.1513 20.5459 15.2999C20.1593 15.4485 19.9663 15.8824 20.1149 16.2691L21.5151 15.7309ZM21.75 10.5V4.11397H20.25V10.5H21.75ZM21.75 4.11397C21.75 3.37449 21.7648 2.78927 21.4831 2.19736L20.1287 2.84196C20.2352 3.06575 20.25 3.27149 20.25 4.11397H21.75ZM21.4831 2.19737C21.323 1.861 20.9983 1.45368 20.7064 1.22266L19.7756 2.39892C19.8877 2.4876 20.0674 2.7131 20.1287 2.84195L21.4831 2.19737ZM20.7064 1.22265C20.201 0.822711 19.7413 0.727757 19.1674 0.596331L18.8326 2.05847C19.4411 2.19786 19.5726 2.23831 19.7756 2.39893L20.7064 1.22265ZM19.1674 0.596331C18.1905 0.372569 17.1198 0.25 16 0.25V1.75C17.012 1.75 17.9701 1.86093 18.8326 2.05847L19.1674 0.596331ZM16 0.25C13.9915 0.25 12.1298 0.644544 10.6826 1.32047L11.3174 2.67953C12.5352 2.11074 14.1743 1.75 16 1.75V0.25ZM10.6826 1.32047C9.46479 1.88926 7.82565 2.25 6 2.25V3.75C8.00849 3.75 9.87021 3.35546 11.3174 2.67953L10.6826 1.32047ZM6 2.25C4.988 2.25 4.02989 2.13907 3.16745 1.94153L2.83255 3.40367C3.80949 3.62743 4.88016 3.75 6 3.75V2.25ZM3.16744 1.94153C1.841 1.63772 0.25 2.54678 0.25 4.11397H1.75C1.75 3.7115 2.23906 3.26774 2.83256 3.40367L3.16744 1.94153ZM0.25 4.11397V14.886H1.75V4.11397H0.25ZM0.25 14.886C0.25 15.6255 0.23518 16.2108 0.516929 16.8027L1.87131 16.1579C1.76482 15.9342 1.75 15.7285 1.75 14.886H0.25ZM0.516916 16.8026C0.676915 17.1388 1.0015 17.5463 1.29369 17.7774L2.22427 16.601C2.11242 16.5125 1.93274 16.287 1.87132 16.158L0.516916 16.8026ZM1.29357 17.7773C1.79901 18.1773 2.25875 18.2723 2.83257 18.4037L3.16743 16.9415C2.55885 16.8021 2.42737 16.7617 2.22439 16.6011L1.29357 17.7773ZM2.83251 18.4037C3.8095 18.6275 4.88019 18.75 6 18.75V17.25C4.98797 17.25 4.02988 17.1391 3.16748 16.9415L2.83251 18.4037ZM6 18.75C7.54172 18.75 8.99284 18.5176 10.2354 18.1068L9.76455 16.6826C8.68682 17.039 7.39596 17.25 6 17.25V18.75ZM12.75 9.5C12.75 10.4665 11.9665 11.25 11 11.25V12.75C12.7949 12.75 14.25 11.2949 14.25 9.5H12.75ZM11 11.25C10.0335 11.25 9.25 10.4665 9.25 9.5H7.75C7.75 11.2949 9.20509 12.75 11 12.75V11.25ZM9.25 9.5C9.25 8.53351 10.0335 7.75 11 7.75V6.25C9.20509 6.25 7.75 7.70507 7.75 9.5H9.25ZM11 7.75C11.9665 7.75 12.75 8.53351 12.75 9.5H14.25C14.25 7.70507 12.7949 6.25 11 6.25V7.75ZM3.75 10.5V10.509H5.25V10.5H3.75ZM16.75 8.49219V8.50117H18.25V8.49219H16.75ZM17.8253 13.5518L18.6485 14.3097L19.6645 13.2061L18.8413 12.4482L17.8253 13.5518ZM18.6308 14.2928C18.6776 14.3388 18.7095 14.3703 18.7348 14.3964C18.7614 14.4238 18.7647 14.4291 18.7586 14.4212C18.7562 14.4182 18.7109 14.361 18.6798 14.2621C18.6626 14.2076 18.6484 14.136 18.6502 14.0518C18.652 13.9658 18.6704 13.8822 18.7026 13.8058L20.085 14.388C20.2723 13.9433 20.0113 13.5899 19.9497 13.5095C19.8687 13.4036 19.7538 13.2933 19.6822 13.223L18.6308 14.2928ZM18.7029 13.805C18.7738 13.6372 18.8979 13.5307 19.0065 13.4744C19.0955 13.4282 19.1651 13.4199 19.1679 13.4195C19.1766 13.4183 19.1694 13.4198 19.1306 13.4208C19.0937 13.4217 19.0482 13.4217 18.9821 13.4217V14.9217C19.0841 14.9217 19.2428 14.9235 19.3743 14.9052C19.4727 14.8916 19.8999 14.8263 20.0847 14.3888L18.7029 13.805ZM18.9821 13.4217H15.8777V14.9217H18.9821V13.4217ZM15.8777 13.4217C13.8865 13.4217 12.25 15.0116 12.25 17H13.75C13.75 15.8644 14.6903 14.9217 15.8777 14.9217V13.4217ZM12.25 17C12.25 17.4459 12.3331 17.874 12.4849 18.2691L13.8851 17.7309C13.7979 17.5042 13.75 17.2583 13.75 17H12.25ZM16.1747 20.4482L15.3515 19.6903L14.3355 20.7939L15.1587 21.5518L16.1747 20.4482ZM15.3692 19.7072C15.3224 19.6612 15.2905 19.6297 15.2652 19.6036C15.2386 19.5762 15.2354 19.5709 15.2414 19.5788C15.2438 19.5818 15.2891 19.639 15.3202 19.7379C15.3374 19.7924 15.3516 19.864 15.3498 19.9482C15.348 20.0342 15.3296 20.1178 15.2974 20.1942L13.915 19.612C13.7277 20.0567 13.9887 20.4101 14.0503 20.4905C14.1313 20.5964 14.2462 20.7067 14.3178 20.777L15.3692 19.7072ZM15.2971 20.195C15.2262 20.3628 15.1021 20.4693 14.9935 20.5256C14.9045 20.5718 14.8349 20.5801 14.8321 20.5805C14.8234 20.5817 14.8306 20.5802 14.8694 20.5792C14.9063 20.5783 14.9518 20.5783 15.0179 20.5783V19.0783C14.9159 19.0783 14.7572 19.0765 14.6257 19.0948C14.5273 19.1084 14.1001 19.1737 13.9153 19.6112L15.2971 20.195ZM15.0179 20.5783H18.1223V19.0783H15.0179V20.5783ZM18.1223 20.5783C20.1135 20.5783 21.75 18.9884 21.75 17H20.25C20.25 18.1356 19.3097 19.0783 18.1223 19.0783V20.5783ZM21.75 17C21.75 16.5541 21.6669 16.126 21.5151 15.7309L20.1149 16.2691C20.2021 16.4958 20.25 16.7417 20.25 17H21.75Z" fill="black"/>
</svg>
