<svg width="51" height="32" viewBox="0 0 51 32" fill="none" xmlns="http://www.w3.org/2000/svg">
<path fill-rule="evenodd" clip-rule="evenodd" d="M46.4408 11.2001C46.4779 11.1988 46.5094 11.1846 46.5354 11.1574L46.718 10.9683C43.8706 7.98734 40.6347 5.32445 37.0474 3.29668C33.7346 1.42375 30.0935 0.172974 26.343 0.0172056C23.6529 -0.0940573 20.9653 0.334304 18.2802 1.30229C16.7058 1.87035 15.1855 2.57687 13.7193 3.42185C10.374 5.35041 7.3393 7.81674 4.65601 10.589C4.65602 10.5891 4.65602 10.5891 4.65603 10.5891C2.99266 12.2549 1.47917 14.0487 0.115584 15.9705C0.109335 15.9789 0.105886 15.9891 0.105719 15.9996C0.105553 16.01 0.108679 16.0203 0.114658 16.0289C0.665409 16.8183 1.24861 17.5841 1.86427 18.3265C3.98692 20.8843 6.31818 23.1865 8.85807 25.2331C12.0198 27.782 15.5487 29.8747 19.4308 31.0717C21.4707 31.7009 23.5448 32.0103 25.6532 31.9998C32.6878 31.9645 39.2023 28.0091 44.2768 23.4029C46.7666 21.143 48.9656 18.6992 50.8737 16.0716C50.8869 16.0532 50.8941 16.0312 50.8943 16.0088C50.8945 15.9863 50.8876 15.9645 50.8747 15.9464C49.6155 14.1835 48.23 12.5241 46.7181 10.9683L46.5354 11.1574C46.5094 11.1846 46.4779 11.1989 46.4408 11.2001C46.3846 11.2026 46.3382 11.2273 46.3018 11.2743C46.292 11.2872 46.2793 11.2977 46.2646 11.305C46.25 11.3122 46.2338 11.316 46.2174 11.316C46.1828 11.316 46.1534 11.3287 46.1293 11.354C46.0323 11.4554 45.9148 11.5135 45.777 11.5283C45.7197 11.5342 45.6703 11.5489 45.6217 11.5633C45.5554 11.5829 45.4906 11.6021 45.4098 11.5979C45.3869 11.5972 45.3656 11.6031 45.3458 11.6155L45.2967 11.647C45.2682 11.6649 45.2398 11.6655 45.2114 11.6489M4.6709 10.6105C4.70455 10.6495 4.74658 10.6389 4.79697 10.5789C4.81507 10.5573 4.83739 10.5396 4.86257 10.5269C4.88774 10.5143 4.91524 10.5069 4.94338 10.5052C4.97151 10.5036 4.99968 10.5077 5.02617 10.5173C5.05265 10.527 5.07689 10.5419 5.09738 10.5613C5.15796 10.6175 5.24821 10.6561 5.36812 10.6772C5.70809 10.7353 6.03601 10.773 6.35187 10.7903C6.36856 10.7909 6.38216 10.785 6.39267 10.7727C6.39885 10.7652 6.40627 10.7618 6.41492 10.7625C6.59913 10.7668 6.76509 10.7946 6.91282 10.8459C6.94497 10.8564 6.97773 10.8598 7.01111 10.8561C7.04246 10.8518 7.06861 10.8602 7.08956 10.8814C7.0686 10.8602 7.04244 10.8517 7.01107 10.8561C6.97769 10.8598 6.94493 10.8564 6.91279 10.8459C6.76506 10.7946 6.59909 10.7668 6.41489 10.7624C6.40623 10.7618 6.39881 10.7652 6.39263 10.7726C6.38212 10.785 6.36853 10.7909 6.35184 10.7902C6.03597 10.7729 5.70806 10.7352 5.36809 10.6771C5.24817 10.6561 5.15792 10.6175 5.09735 10.5612C5.07685 10.5419 5.05262 10.5269 5.02613 10.5173C4.99965 10.5077 4.97147 10.5035 4.94334 10.5052C4.91521 10.5068 4.88771 10.5142 4.86253 10.5269C4.83735 10.5396 4.81503 10.5572 4.79694 10.5788C4.74656 10.6389 4.70455 10.6494 4.6709 10.6105ZM46.4408 11.2001C46.3846 11.2025 46.3382 11.2273 46.3017 11.2742L46.4408 11.2001ZM46.3017 11.2742C46.292 11.2872 46.2793 11.2977 46.2646 11.3049L46.3017 11.2742ZM46.2646 11.3049C46.25 11.3122 46.2338 11.3159 46.2174 11.316L46.2646 11.3049ZM46.2174 11.316C46.1827 11.316 46.1534 11.3286 46.1293 11.354L46.2174 11.316ZM46.1293 11.354C46.0322 11.4553 45.9148 11.5134 45.7769 11.5283L46.1293 11.354ZM45.7769 11.5283C45.7197 11.5342 45.6703 11.5488 45.6217 11.5632L45.7769 11.5283ZM45.6217 11.5632C45.5553 11.5829 45.4906 11.6021 45.4098 11.5978L45.6217 11.5632ZM45.4098 11.5978C45.3869 11.5972 45.3656 11.6031 45.3458 11.6154L45.4098 11.5978ZM45.3458 11.6154L45.2966 11.647L45.3458 11.6154ZM45.2966 11.647C45.2682 11.6649 45.2398 11.6655 45.2113 11.6488L45.2966 11.647ZM45.1446 11.6562C45.163 11.64 45.1823 11.6361 45.2026 11.6445C45.1823 11.6361 45.163 11.6401 45.1446 11.6563C45.1211 11.6767 45.0936 11.6881 45.0621 11.6906C45.045 11.6917 45.0294 11.6916 45.0143 11.6914C44.9805 11.691 44.9498 11.6907 44.9119 11.7054C44.7036 11.7876 44.4934 11.8553 44.2814 11.9085C44.2449 11.9177 44.2162 11.9378 44.1952 11.9687C44.163 12.0151 44.1207 12.0516 44.0682 12.0781C44.0678 12.0784 44.0674 12.0785 44.067 12.0786C44.0665 12.0787 44.066 12.0788 44.0655 12.0788C44.0646 12.0787 44.0637 12.0784 44.0628 12.0778C44.0624 12.0776 44.062 12.0772 44.0617 12.0768C44.062 12.0772 44.0624 12.0775 44.0628 12.0778C44.0636 12.0784 44.0645 12.0787 44.0655 12.0787C44.0664 12.0788 44.0673 12.0786 44.0681 12.0781C44.1207 12.0515 44.163 12.0151 44.1951 11.9687C44.2162 11.9378 44.2449 11.9177 44.2814 11.9084C44.4934 11.8553 44.7036 11.7876 44.9119 11.7054C44.9497 11.6906 44.9805 11.691 45.0143 11.6913C45.0293 11.6915 45.045 11.6917 45.0621 11.6905C45.0936 11.6881 45.1211 11.6766 45.1446 11.6562ZM43.9995 12.0113C44.019 11.999 44.0337 11.9955 44.0436 12.0009C44.0337 11.9955 44.019 11.999 43.9995 12.0114C43.9631 12.0343 43.9291 12.0714 43.8976 12.1227C45.0739 13.2878 46.1899 14.5102 47.2456 15.7897C47.3217 15.8818 47.3609 15.9306 47.3634 15.9362C47.3937 16.0073 47.3838 16.0722 47.3337 16.1309C45.7142 18.023 44.2724 19.5603 43.0084 20.7427C41.4618 22.1885 39.8995 23.4706 38.3214 24.5887C38.2602 24.632 38.2497 24.6221 38.2899 24.5591C38.709 23.9039 39.0765 23.2443 39.3923 22.5804C40.2132 20.8546 40.6898 19.0395 40.8221 17.135C40.8653 16.5107 40.8811 15.9832 40.8693 15.5523C40.8248 13.9514 40.5325 12.3999 39.9922 10.8978C39.9655 10.9317 39.9544 10.9605 39.9589 10.9841C39.9544 10.9605 39.9655 10.9317 39.9922 10.8978C39.5712 9.6535 39.0026 8.51059 38.2862 7.46904C38.2089 7.35716 38.2256 7.34047 38.3362 7.41897C40.3006 8.8147 42.1544 10.3826 43.8975 12.1226C43.929 12.0713 43.963 12.0342 43.9995 12.0113ZM39.9974 11.0311C40.0036 11.0382 40.0099 11.0519 40.0159 11.0709C40.0236 11.0952 40.0302 11.1272 40.0348 11.162C40.0398 11.1997 40.025 11.2121 39.9903 11.1991C39.9748 11.1937 39.9612 11.1843 39.9497 11.1708C39.9613 11.1843 39.9748 11.1938 39.9904 11.1992C40.025 11.2122 40.0398 11.1998 40.0349 11.1621C40.0303 11.1272 40.0236 11.0953 40.016 11.0709C40.01 11.0519 40.0036 11.0382 39.9974 11.0311ZM39.8281 11.1018C39.8398 11.1025 39.8511 11.1045 39.862 11.1077C39.8512 11.1045 39.8398 11.1026 39.8281 11.1018C39.7144 11.0944 39.6127 11.1306 39.5231 11.2103C39.5027 11.2282 39.4792 11.239 39.4526 11.2427L39.0799 11.291C39.0558 11.2941 39.0323 11.2919 39.0094 11.2845C38.9884 11.2777 38.9671 11.278 38.9454 11.2854C38.909 11.2978 38.8706 11.3046 38.8305 11.3058C38.7384 11.3077 38.645 11.3145 38.5504 11.3262C38.4892 11.3342 38.4274 11.3318 38.365 11.3188C38.1653 11.278 37.9641 11.2601 37.7614 11.265C37.7565 11.2653 37.7528 11.2643 37.7505 11.2618C37.7528 11.2642 37.7565 11.2653 37.7614 11.265C37.9641 11.26 38.1653 11.2779 38.365 11.3187C38.4274 11.3317 38.4892 11.3342 38.5504 11.3262C38.645 11.3144 38.7383 11.3076 38.8304 11.3058C38.8706 11.3045 38.9089 11.2977 38.9454 11.2854C38.967 11.2779 38.9883 11.2776 39.0094 11.2844C39.0322 11.2919 39.0557 11.294 39.0798 11.2909L39.4526 11.2427C39.4791 11.239 39.5026 11.2282 39.523 11.2103C39.6127 11.1305 39.7143 11.0944 39.8281 11.1018ZM37.711 11.1506C37.7077 11.1493 37.704 11.1481 37.7002 11.1472L37.7002 11.1472C37.7041 11.1482 37.7077 11.1493 37.711 11.1506ZM37.6186 11.1278C38.2129 12.5927 38.5458 14.1393 38.556 15.7164C38.5591 16.2239 38.5508 16.6297 38.531 16.9338C38.4209 18.5985 37.9923 20.1932 37.245 21.7182C36.6268 22.9779 35.8832 24.0568 35.0141 24.955C34.6229 25.3583 34.201 25.7653 33.7652 26.1195C31.9918 27.5616 29.9637 28.4842 27.681 28.8872C23.6866 29.5919 19.4327 28.2892 16.5009 25.4686C14.4772 23.5234 13.1899 21.1458 12.6392 18.3358C12.5446 17.8542 12.4855 17.3282 12.4621 16.7577C12.4219 15.7909 12.463 14.8866 12.5854 14.0447C12.3882 13.952 12.2701 13.952 12.2312 14.0447C12.224 14.062 12.2109 14.0762 12.194 14.0847C12.1772 14.0932 12.1578 14.0955 12.1394 14.0911C11.8946 14.0342 11.6468 13.9977 11.3958 13.9817C11.2957 13.9749 11.2017 13.986 11.1139 14.0151C11.0861 14.0243 11.058 14.0249 11.0296 14.0169C10.8966 13.9805 10.7963 13.9887 10.6917 13.9972C10.6416 14.0013 10.5905 14.0055 10.5344 14.0049C10.5141 14.0045 10.4988 13.9981 10.4885 13.9858C10.4988 13.9981 10.5141 14.0044 10.5344 14.0048C10.5905 14.0054 10.6416 14.0013 10.6916 13.9972C10.7963 13.9887 10.8966 13.9805 11.0295 14.0169C11.058 14.0249 11.0861 14.0243 11.1139 14.015C11.2017 13.986 11.2956 13.9748 11.3958 13.9816C11.6467 13.9977 11.8946 14.0342 12.1394 14.091C12.1578 14.0954 12.1772 14.0932 12.194 14.0847C12.2108 14.0762 12.224 14.062 12.2312 14.0447C12.2701 13.952 12.3882 13.952 12.5853 14.0447C12.6756 13.3858 12.8378 12.6978 13.0721 11.9808C13.8225 9.68256 15.0965 7.74936 16.894 6.18117C17.6864 5.4901 18.4551 4.94708 19.1999 4.5521C21.3615 3.40609 23.5729 2.8643 25.834 2.92673C26.4057 2.9428 27.0415 3.01141 27.7412 3.13257C30.6452 3.63696 33.232 5.08152 35.2088 7.25857C36.2522 8.40705 37.0555 9.69677 37.6186 11.1277L37.6186 11.1278ZM10.4651 13.9335C10.4636 13.9319 10.462 13.9303 10.4602 13.9288C10.4423 13.9133 10.4256 13.9152 10.4102 13.9343C10.4009 13.9461 10.3978 13.9597 10.4009 13.9751C10.4033 13.9882 10.4019 13.9918 10.3968 13.986C10.402 13.9918 10.4033 13.9882 10.4009 13.9752C10.3978 13.9597 10.4009 13.9461 10.4102 13.9344C10.4256 13.9152 10.4423 13.9134 10.4603 13.9288C10.462 13.9303 10.4636 13.9319 10.4651 13.9335ZM10.2804 13.9316C10.2804 13.9316 10.2804 13.9316 10.2803 13.9316C10.5622 11.6433 11.431 9.42356 12.6836 7.50057C12.7547 7.39178 12.7374 7.37508 12.6317 7.4505C11.2959 8.39994 9.99786 9.44519 8.7375 10.5863C8.46923 10.8292 8.20127 11.0727 7.93362 11.3169C7.93363 11.3169 7.93365 11.3169 7.93366 11.3169C6.40998 12.7708 4.96387 14.317 3.59533 15.9557C3.58675 15.9662 3.58208 15.9793 3.58208 15.993C3.58208 16.0067 3.58675 16.02 3.59533 16.0308C6.25359 19.262 9.24656 22.1326 12.6633 24.5823C12.6762 24.5921 12.6908 24.5992 12.7068 24.6036C12.7489 24.6153 12.7578 24.6033 12.7337 24.5674C11.1934 22.2433 10.3305 19.6694 10.145 16.8458C10.1222 16.5007 10.1355 16.1601 10.1488 15.8167C10.1555 15.6434 10.1623 15.4693 10.1645 15.2936C10.1693 14.9021 10.214 14.512 10.2589 14.1203C10.2661 14.0575 10.2733 13.9946 10.2804 13.9316ZM7.90581 11.1843C7.92656 11.1815 7.93999 11.1835 7.94611 11.1902C7.93997 11.1835 7.92655 11.1815 7.90585 11.1843C7.89023 11.1866 7.8765 11.1824 7.86464 11.1718C7.87649 11.1824 7.89021 11.1866 7.90581 11.1843ZM7.84412 11.1465C7.82399 11.123 7.80717 11.1288 7.79366 11.1639C7.78995 11.1732 7.78408 11.1816 7.77604 11.189C7.7507 11.2106 7.72474 11.2109 7.69816 11.1899C7.69648 11.1886 7.69486 11.1872 7.6933 11.1858C7.69485 11.1872 7.69646 11.1885 7.69812 11.1899C7.7247 11.2109 7.75066 11.2106 7.776 11.1889C7.78404 11.1815 7.78991 11.1732 7.79362 11.1639C7.80714 11.1287 7.82398 11.1229 7.84412 11.1465ZM7.66133 11.0442C7.65334 11.0336 7.63593 11.0402 7.60911 11.0638C7.56955 11.0984 7.53061 11.1024 7.49228 11.0758C7.47559 11.0647 7.45829 11.0548 7.44036 11.0461C7.41934 11.0363 7.40265 11.0363 7.39029 11.0461C7.36545 11.0676 7.34748 11.0726 7.33639 11.061C7.34747 11.0726 7.36545 11.0677 7.39033 11.0462C7.40269 11.0363 7.41938 11.0363 7.4404 11.0462C7.45832 11.0548 7.47563 11.0647 7.49232 11.0759C7.53064 11.1024 7.56958 11.0984 7.60914 11.0638C7.63593 11.0402 7.65332 11.0337 7.66133 11.0442ZM7.30086 10.9481C7.28063 10.9242 7.24708 10.9176 7.20022 10.9284C7.16148 10.9375 7.12956 10.9277 7.10448 10.899C7.12957 10.9278 7.16149 10.9376 7.20025 10.9284C7.24709 10.9177 7.28063 10.9242 7.30086 10.9481Z" fill="black"/>
<path d="M16.938 12.8447C16.9321 12.8611 16.9367 12.865 16.9517 12.8564L24.8281 8.30842C24.8295 8.30772 24.831 8.30737 24.8325 8.30738C24.834 8.3074 24.8355 8.30779 24.8368 8.30852C24.8381 8.30925 24.8391 8.31029 24.8399 8.31154C24.8406 8.3128 24.841 8.31422 24.841 8.31567L24.8414 15.5177C24.8414 15.5256 24.8393 15.5333 24.8354 15.5401C24.8314 15.547 24.8257 15.5527 24.8189 15.5568L15.478 20.9499C15.4571 20.9618 15.4414 20.9569 15.4309 20.9354C15.122 20.307 14.8724 19.6535 14.682 18.9751C14.6787 18.963 14.6825 18.9539 14.6932 18.9477L22.6941 14.3284C22.7089 14.3196 22.7163 14.3066 22.7163 14.2894L22.7175 12.0007C22.7175 11.9988 22.7169 11.997 22.716 11.9954C22.715 11.9938 22.7137 11.9925 22.7121 11.9915C22.7104 11.9906 22.7086 11.9901 22.7067 11.9901C22.7049 11.9901 22.703 11.9905 22.7014 11.9914L14.3182 16.8314C14.3082 16.8374 14.3029 16.8345 14.3021 16.823C14.1594 14.9203 14.4938 13.0058 15.2532 11.3287C16.9771 7.52163 20.6424 4.96585 24.8172 4.69834C24.8331 4.69727 24.841 4.70479 24.841 4.7209L24.8406 6.80533C24.8406 6.82091 24.833 6.82923 24.8176 6.83031C21.2273 7.11675 18.1692 9.48076 16.938 12.8447Z" fill="black"/>
<path d="M28.3725 12.9942C28.3707 12.9958 28.3693 12.9978 28.3684 13C28.3674 13.0022 28.3669 13.0046 28.3669 13.0071L28.3673 16.7452C28.3673 16.7478 28.3666 16.7503 28.3653 16.7525C28.364 16.7547 28.3622 16.7565 28.36 16.7578C28.3578 16.759 28.3553 16.7597 28.3528 16.7597C28.3502 16.7597 28.3477 16.759 28.3455 16.7577L26.2627 15.5544C26.2487 15.5463 26.2418 15.5342 26.2418 15.5181V4.71004C26.2418 4.70813 26.2421 4.70625 26.2429 4.7045C26.2436 4.70276 26.2447 4.70119 26.2461 4.6999C26.2474 4.69861 26.2491 4.69763 26.2508 4.69702C26.2526 4.6964 26.2544 4.69617 26.2563 4.69634C28.3549 4.83681 30.2583 5.49925 31.9665 6.68368C34.2346 8.25647 35.8707 10.631 36.5084 13.3346C36.8524 14.794 36.9057 16.2683 36.6683 17.7572C36.6682 17.7586 36.6677 17.7599 36.6669 17.761C36.6662 17.7621 36.6651 17.7629 36.6639 17.7635C36.6627 17.7641 36.6614 17.7644 36.66 17.7644C36.6587 17.7643 36.6574 17.764 36.6562 17.7633C33.9022 16.1714 31.1479 14.5805 28.3931 12.9905C28.3863 12.9868 28.3795 12.988 28.3725 12.9942ZM34.2467 13.1376C33.3398 10.3707 31.1672 8.15897 28.3878 7.25414C28.3854 7.25338 28.3829 7.2532 28.3804 7.25361C28.3779 7.25402 28.3755 7.25501 28.3735 7.2565C28.3714 7.25799 28.3698 7.25994 28.3686 7.26218C28.3675 7.26443 28.3669 7.26692 28.3669 7.26945L28.3677 10.4956C28.3677 10.5033 28.3697 10.5109 28.3736 10.5176C28.3775 10.5243 28.3831 10.5299 28.3898 10.5339L34.4876 14.0545C34.5075 14.0661 34.5139 14.061 34.5069 14.0392C34.4099 13.7423 34.3446 13.4365 34.2467 13.1376Z" fill="black"/>
<path d="M31.6241 22.731C31.6166 22.7194 31.6069 22.7101 31.5951 22.7032C31.0075 22.3615 30.3836 22.001 29.7234 21.6215C29.7129 21.6156 29.7012 21.6125 29.6892 21.6125C29.6773 21.6125 29.6656 21.6156 29.6553 21.6215L21.3784 26.3999C21.3691 26.4053 21.3585 26.4086 21.3477 26.4093C21.3368 26.41 21.326 26.4081 21.316 26.4039C19.1878 25.5224 17.4689 24.1211 16.1593 22.2C16.1494 22.1855 16.1521 22.1738 16.1674 22.1649L17.9791 21.1183C17.9919 21.1108 18.0027 21.1132 18.0113 21.1255C18.8315 22.3132 19.8896 23.267 21.1855 23.9871C21.2263 24.0097 21.2666 24.0094 21.3063 23.9863C23.3776 22.7909 25.4553 21.5911 27.5395 20.3871C27.5418 20.3857 27.5438 20.3838 27.5451 20.3815C27.5465 20.3791 27.5472 20.3765 27.5472 20.3738C27.5472 20.3711 27.5465 20.3684 27.5451 20.3661C27.5438 20.3638 27.5418 20.3618 27.5395 20.3605L23.431 17.988C23.4295 17.9872 23.4283 17.986 23.4274 17.9845C23.4265 17.983 23.426 17.9813 23.426 17.9796C23.426 17.9778 23.4265 17.9761 23.4274 17.9747C23.4283 17.9732 23.4295 17.9719 23.431 17.9711L25.5292 16.7597C25.5383 16.7546 25.5473 16.7546 25.5562 16.7597L34.9204 22.1661C34.9227 22.1675 34.9248 22.1694 34.9264 22.1716C34.928 22.1738 34.9292 22.1764 34.9298 22.1791C34.9304 22.1817 34.9304 22.1845 34.9299 22.1872C34.9294 22.1899 34.9283 22.1925 34.9268 22.1947C32.6913 25.4962 29.0127 27.378 25.0203 27.204C24.7472 27.1922 24.5004 27.1731 24.2799 27.1468C24.2541 27.1438 24.2523 27.1359 24.2746 27.123C25.7266 26.2853 27.1907 25.44 28.6671 24.587C28.8202 24.4983 28.9786 24.4192 29.1425 24.3497C30.0333 23.9713 30.8585 23.4465 31.6181 22.7753C31.6326 22.7624 31.6346 22.7476 31.6241 22.731Z" fill="black"/>
</svg>
