<svg width="20" height="20" viewBox="0 0 20 20" fill="none" xmlns="http://www.w3.org/2000/svg">
<g clip-path="url(#clip0_1_1822)">
<path d="M11.6667 15C15.3486 15 18.3333 12.0152 18.3333 8.33332C18.3333 4.65142 15.3486 1.66666 11.6667 1.66666C7.98477 1.66666 5 4.65142 5 8.33332C5 12.0152 7.98477 15 11.6667 15Z" stroke="black" stroke-width="1.5" stroke-linecap="round"/>
<path d="M2.63046 9.16666C2.02101 10.098 1.66666 11.2112 1.66666 12.4073C1.66666 15.6802 4.31981 18.3333 7.59262 18.3333C8.78874 18.3333 9.90199 17.979 10.8333 17.3695" stroke="black" stroke-width="1.5" stroke-linecap="round"/>
<path d="M13.1427 6.83764C12.9625 6.07752 12.0455 5.39164 10.9448 5.90477C9.84401 6.41789 9.66918 8.06885 11.3342 8.24423C12.0868 8.32351 12.5773 8.15225 13.0266 8.63666C13.4758 9.12107 13.5593 10.4683 12.4109 10.8314C11.2626 11.1944 10.1255 10.6272 10.0017 9.82157M11.6552 5.00345V5.72765M11.6552 10.9432V11.6702" stroke="black" stroke-width="1.5" stroke-linecap="round" stroke-linejoin="round"/>
</g>
<defs>
<clipPath id="clip0_1_1822">
<rect width="20" height="20" fill="white"/>
</clipPath>
</defs>
</svg>
