<svg width="20" height="20" viewBox="0 0 20 20" fill="none" xmlns="http://www.w3.org/2000/svg">
<path d="M12.236 3.29178C12.236 2.77191 12.236 2.51198 12.1789 2.29871C12.0238 1.71997 11.5717 1.26793 10.9931 1.11285C10.4315 0.962382 9.5684 0.962382 9.0068 1.11285C8.4281 1.26793 7.97609 1.71997 7.82101 2.29871C7.76387 2.51198 7.76387 2.77191 7.76387 3.29178C7.76387 4.34588 7.76387 7.109 7.43641 7.43647C7.10894 7.76393 4.34582 7.76393 3.29172 7.76393C2.77185 7.76393 2.51192 7.76393 2.29865 7.82107C1.71991 7.97615 1.26787 8.4282 1.11279 9.0069C0.962321 9.5685 0.962321 10.4315 1.11279 10.9931C1.26787 11.5718 1.71991 12.0239 2.29865 12.1789C2.51192 12.2361 2.77185 12.2361 3.29172 12.2361C4.34582 12.2361 7.10894 12.2361 7.43641 12.5635C7.76387 12.891 7.76387 13.418 7.76387 14.4721C7.76387 14.992 7.76387 17.4881 7.82101 17.7013C7.97609 18.28 8.4281 18.7321 9.0068 18.8871C9.5684 19.0376 10.4315 19.0376 10.9931 18.8871C11.5717 18.7321 12.0238 18.28 12.1789 17.7013C12.236 17.4881 12.236 14.992 12.236 14.4721C12.236 13.418 12.236 12.891 12.5635 12.5635C12.8909 12.2361 15.654 12.2361 16.7082 12.2361C17.228 12.2361 17.488 12.2361 17.7013 12.1789C18.28 12.0239 18.732 11.5718 18.8871 10.9931C19.0376 10.4315 19.0376 9.5685 18.8871 9.0069C18.732 8.4282 18.28 7.97615 17.7013 7.82107C17.488 7.76393 17.228 7.76393 16.7082 7.76393C15.654 7.76393 12.8909 7.76393 12.5635 7.43647C12.236 7.109 12.236 4.34588 12.236 3.29178Z" stroke="black" stroke-width="1.5" stroke-linecap="round" stroke-linejoin="round"/>
</svg>
