<svg width="208" height="49" viewBox="0 0 208 49" fill="none" xmlns="http://www.w3.org/2000/svg">
<path d="M7.06647 18.8679C3.8712 18.3159 1.02413 19.7113 0 20.478V49H208V5.98705C207.334 5.37368 205.388 4.60696 202.931 6.44708C199.858 8.74724 192.331 6.44708 187.261 4.14693C182.192 1.84678 179.888 6.44708 172.36 8.74724C164.833 11.0474 157.306 6.44708 153.619 4.14693C149.932 1.84678 149.164 -1.60347 144.863 4.14693C140.561 9.89732 130.883 7.36715 121.359 6.44708C111.835 5.52702 97.2408 16.7978 91.4032 16.7978C85.5657 16.7978 83.7223 16.7978 79.5746 18.8679C75.4269 20.9381 74.1979 18.8679 68.514 17.7179C62.8301 16.5678 51.7696 16.7978 50.387 17.7179C49.0044 18.6379 47.3146 18.8679 45.4712 18.8679C43.6278 18.8679 43.3205 16.7978 40.5554 16.7978C37.7902 16.7978 37.0222 16.7978 34.257 17.7179C31.4919 18.6379 30.4165 17.7179 28.2659 17.7179C26.1152 17.7179 25.6544 14.4976 20.7386 16.7978C15.8227 19.0979 11.0606 19.558 7.06647 18.8679Z" fill="url(#paint0_linear_25_8309)" fill-opacity="0.3"/>
<path d="M0 20.478C1.02413 19.7113 3.8712 18.3159 7.06647 18.8679C11.0606 19.558 15.8227 19.0979 20.7386 16.7978C25.6544 14.4976 26.1152 17.7179 28.2659 17.7179C30.4165 17.7179 31.4919 18.6379 34.257 17.7179C37.0222 16.7978 37.7902 16.7978 40.5554 16.7978C43.3205 16.7978 43.6278 18.8679 45.4712 18.8679C47.3146 18.8679 49.0044 18.6379 50.387 17.7179C51.7696 16.7978 62.8301 16.5678 68.514 17.7179C74.1979 18.8679 75.4269 20.9381 79.5746 18.8679C83.7223 16.7978 85.5657 16.7978 91.4032 16.7978C97.2408 16.7978 111.835 5.52702 121.359 6.44708C130.883 7.36714 140.561 9.89732 144.863 4.14693C149.164 -1.60347 149.932 1.84678 153.619 4.14693C157.306 6.44708 164.833 11.0474 172.36 8.74724C179.888 6.44708 182.192 1.84678 187.261 4.14693C192.331 6.44708 199.858 8.74723 202.931 6.44708C205.388 4.60696 207.334 5.37368 208 5.98705" stroke="url(#paint1_linear_25_8309)" stroke-width="2"/>
<defs>
<linearGradient id="paint0_linear_25_8309" x1="104" y1="1" x2="104" y2="49" gradientUnits="userSpaceOnUse">
<stop stop-color="#A6B3F0"/>
<stop offset="1" stop-color="#A6B3F0" stop-opacity="0"/>
</linearGradient>
<linearGradient id="paint1_linear_25_8309" x1="181.024" y1="23.4708" x2="35.6771" y2="-75.2673" gradientUnits="userSpaceOnUse">
<stop stop-color="#35C3F3"/>
<stop offset="0.264988" stop-color="#8B9FE8"/>
<stop offset="0.525409" stop-color="#E681D8"/>
<stop offset="0.744796" stop-color="#FFA9A4"/>
<stop offset="1" stop-color="#FED2CE"/>
<stop offset="1" stop-color="#FED2CE"/>
</linearGradient>
</defs>
</svg>
